<svg width="390" height="615" viewBox="0 0 390 615" fill="none" xmlns="http://www.w3.org/2000/svg">
<path opacity="0.15" d="M175.465 602.133C44.5516 564.444 -59.1865 491.525 -120.71 367.024C-157.808 291.97 -167.16 213.17 -128.854 135.968C-81.3474 40.0735 4.58448 5.01698 105.764 0.894982C277.281 -6.07859 457.812 109.381 521.547 266.038C543.758 320.452 552.382 376.493 537.38 434.585C530.13 462.609 518.167 471.591 488.754 468.154C437.634 462.272 392.996 438.835 349.498 413.33C298.709 383.685 256.43 343.305 214.595 302.584C157.172 246.65 97.5267 193.873 23.0272 161.109C9.73003 155.311 -3.46091 149.449 -18.2627 150.508C-26.4504 151.114 -34.7133 154.232 -37.1881 163.197C-39.2428 170.821 -34.9002 177.037 -29.2854 182.12C-27.9616 183.349 -26.7645 184.727 -25.2719 185.636C56.5678 234.836 118.691 306.557 187.464 370.7C249.469 428.573 321.702 469.09 403.42 492.699C420.628 497.652 437.776 503.583 454.226 510.517C481.649 522.045 483.877 536.864 460.465 555.315C397.777 604.575 325.057 618.583 247.434 613.592C223.24 612.071 199.19 608.868 175.465 602.133Z" fill="white"/>
</svg>
