<svg width="85" height="13" viewBox="0 0 85 13" fill="none" xmlns="http://www.w3.org/2000/svg">
<path d="M78.0032 2.5954C78.5064 2.61305 79.0109 2.61305 79.5317 2.61305C80.0538 2.61305 80.8092 2.5954 81.0968 2.5954C83.5787 2.5954 84.9999 4.10623 84.9999 6.24636C84.9999 8.2793 83.1827 9.5379 81.3124 9.5379C80.8269 9.5379 79.8369 9.50133 79.4951 9.50133C79.2429 9.50133 78.3803 9.5379 78.002 9.5379V9.21379C78.7574 9.21379 78.8293 9.0158 78.8293 8.36884V3.54881C78.8293 2.95482 78.6313 2.91951 78.002 2.91951V2.5954H78.0032ZM80.9706 3.00905C80.5747 3.00905 80.359 3.00905 79.8369 3.04562V8.20868C79.8369 9.01832 80.2329 9.14443 81.1497 9.14443C82.4083 9.14443 83.8662 8.10148 83.8662 6.19466C83.8662 4.28657 82.6442 3.00905 80.9706 3.00905Z" fill="#333333"/>
<path d="M6.16944 9.21509C5.89955 9.35886 4.74815 9.68297 3.72285 9.68297C1.36706 9.68297 0 8.11791 0 6.15686C0 3.8553 1.78071 2.56012 4.06461 2.56012C4.98145 2.56012 5.77344 2.75812 6.18709 3.01034L6.24132 4.35975H5.86298C5.5931 3.1188 4.67626 2.97503 3.75816 2.97503C2.30156 2.97503 1.07826 4.0369 1.07826 5.85292C1.07826 7.88586 2.49955 9.25292 3.72285 9.25292C4.29792 9.25292 5.77344 9.18104 5.95378 7.86821H6.3132L6.16944 9.21509Z" fill="#333333"/>
<path d="M11.9441 9.70059C9.93008 9.70059 8.31079 8.06365 8.31079 6.04963C8.31079 4.03435 9.93008 2.41632 11.9441 2.41632C13.977 2.41632 15.5951 4.03561 15.5951 6.04963C15.5951 8.06365 13.9758 9.70059 11.9441 9.70059ZM11.7814 2.86528C10.4144 2.88294 9.46094 4.23234 9.46094 5.85163C9.46094 7.68657 10.6842 9.25163 12.1232 9.25163C13.4726 9.25163 14.426 7.90223 14.426 6.2842C14.426 4.32315 13.1485 2.86528 11.7814 2.86528Z" fill="#333333"/>
<path d="M32.7981 9.64637C30.5319 9.64637 29.6138 7.75721 29.6138 6.28295C29.6138 3.9259 31.0704 2.55884 32.7439 2.55884C34.4527 2.55884 35.478 3.94356 35.478 5.45439C35.478 5.97649 35.4238 5.99415 35.1539 5.99415H32.9772C32.1852 5.99415 31.3945 5.99415 30.7652 6.0118C30.7828 7.12664 31.2507 9.05238 33.3555 9.05238C33.913 9.05238 34.5965 8.90861 35.4061 8.5845L35.5322 8.92627C34.4704 9.43072 33.5535 9.64637 32.7981 9.64637ZM33.0138 5.50988C33.9306 5.50988 34.4174 5.50988 34.4174 4.86292C34.4174 4.03562 33.6973 3.01032 32.672 3.01032C31.6291 3.01032 30.7652 4.07219 30.7652 5.51114H33.0138V5.50988Z" fill="#333333"/>
<path d="M40.9097 9.64637C38.6434 9.64637 37.7253 7.75721 37.7253 6.28295C37.7253 3.9259 39.1819 2.55884 40.8555 2.55884C42.5643 2.55884 43.5896 3.94356 43.5896 5.45439C43.5896 5.97649 43.5354 5.99415 43.2655 5.99415H41.0888C40.2968 5.99415 39.5061 5.99415 38.8767 6.0118C38.8944 7.12664 39.3623 9.05238 41.4671 9.05238C42.0245 9.05238 42.7081 8.90861 43.5177 8.5845L43.6438 8.92627C42.5832 9.43072 41.6651 9.64637 40.9097 9.64637ZM41.1253 5.50988C42.0422 5.50988 42.529 5.50988 42.529 4.86292C42.529 4.03562 41.8089 3.01032 40.7836 3.01032C39.7406 3.01032 38.8767 4.07219 38.8767 5.51114H41.1253V5.50988Z" fill="#333333"/>
<path d="M57.3321 9.53914C56.8818 9.52149 56.4329 9.50257 56.0003 9.50257C55.5501 9.50257 55.1188 9.52023 54.6875 9.53914V9.21503C55.4429 9.21503 55.5148 8.98173 55.5148 8.40539C55.5148 7.43432 55.5324 5.63469 55.5324 4.87928C55.5324 3.94352 55.4959 3.29656 54.6156 3.29656C53.8236 3.29656 52.7264 3.85398 52.2056 4.3042V8.35116C52.2056 9.07127 52.2775 9.21503 53.0152 9.21503V9.53914C52.5839 9.52149 52.1514 9.50257 51.7024 9.50257C51.2522 9.50257 50.8032 9.52023 50.353 9.53914V9.21503C51.1261 9.21503 51.2169 8.9275 51.2169 8.33351V4.80865C51.2169 3.90947 51.1626 3.26125 50.2634 3.26125C49.4538 3.26125 48.4285 3.80101 47.9077 4.26889V8.35242C47.9077 9.05361 47.9253 9.2163 48.6631 9.2163V9.5404C48.4108 9.5404 47.7815 9.50383 47.3326 9.50383C46.8824 9.50383 46.4334 9.52149 46.0008 9.5404V9.2163C46.7209 9.2163 46.8458 9.00064 46.8458 8.35242V3.83759C46.8458 3.19063 46.6478 2.92075 45.91 2.92075V2.59664C46.1623 2.59664 46.7739 2.57898 47.1333 2.57898C47.8169 2.57898 47.9064 2.70509 47.9064 3.31674V3.71273C48.5004 3.15532 49.5257 2.48944 50.4425 2.48944C51.4502 2.48944 52.0076 3.06451 52.169 3.74805C52.7441 3.1364 53.8413 2.5071 54.8312 2.5071C56.216 2.5071 56.5401 3.44285 56.5401 4.59426V8.31711C56.5401 9.07253 56.5943 9.2163 57.3321 9.2163V9.53914Z" fill="#333333"/>
<path d="M23.8908 1.46921C23.6941 1.46921 23.4431 1.27248 23.1569 1.07448C22.9236 0.913056 22.4935 0.770549 22.0105 0.770549C21.0785 0.770549 19.9675 1.36202 19.9675 3.74429V5.48212H22.2072V6.01936H20.0217V10.8747C20.0217 12.0211 20.3975 12.0753 21.7053 12.0753V12.3981C21.0066 12.3805 20.308 12.3628 19.627 12.3628C18.9283 12.3628 18.2473 12.3805 17.5663 12.3981V12.0753C18.4983 12.0753 18.9813 12.0034 18.9813 11.0904V6.02062H17.7277V5.64481C18.0329 5.64481 18.8388 5.48338 18.9636 5.00037C18.9825 1.02151 21.1315 0 22.6007 0C23.5856 0 24.3562 0.519585 24.3562 0.949629C24.3562 1.20059 24.1065 1.46921 23.8908 1.46921Z" fill="#333333"/>
<path d="M29.3276 1.46921C29.1309 1.46921 28.8799 1.27248 28.5936 1.07448C28.3603 0.913056 27.9303 0.770549 27.4473 0.770549C26.5153 0.770549 25.4042 1.36202 25.4042 3.74429V5.48212H27.644V6.01936H25.4585V10.8747C25.4585 12.0211 25.8343 12.0753 27.1421 12.0753V12.3981C26.4434 12.3805 25.7447 12.3628 25.0637 12.3628C24.3651 12.3628 23.6841 12.3805 23.0031 12.3981V12.0753C23.935 12.0753 24.418 12.0034 24.418 11.0904V6.02062H23.1645V5.64481C23.4697 5.64481 24.2755 5.48338 24.4004 5.00037C24.418 1.02151 26.5683 0 28.0375 0C29.0224 0 29.793 0.519585 29.793 0.949629C29.793 1.20059 29.542 1.46921 29.3276 1.46921Z" fill="#333333"/>
<path d="M72.3912 10.253C70.434 10.1761 68.7352 9.51396 67.4489 7.98674C66.6733 7.06611 66.2723 5.99794 66.5421 4.78852C66.8763 3.28651 67.9559 2.50209 69.3545 2.09727C71.7254 1.41122 74.6424 2.40372 76.07 4.37234C76.5668 5.05588 76.8796 5.80877 76.8695 6.67138C76.8645 7.08755 76.7283 7.25402 76.3058 7.30699C75.5718 7.40031 74.8681 7.22628 74.1732 7.01945C73.3623 6.77984 72.6334 6.36114 71.9095 5.93614C70.9157 5.35224 69.9018 4.82004 68.7491 4.61826C68.5435 4.58295 68.3392 4.54638 68.1362 4.61196C68.024 4.64853 67.9193 4.72042 67.9155 4.8541C67.913 4.9676 67.995 5.03948 68.0908 5.09119C68.1135 5.1038 68.1349 5.11893 68.1589 5.1265C69.4705 5.53258 70.584 6.32079 71.7645 6.98036C72.8289 7.57561 73.9765 7.89341 75.1985 7.9426C75.4558 7.95269 75.7156 7.97665 75.9691 8.017C76.3915 8.08384 76.4735 8.2831 76.2099 8.62108C75.5037 9.52405 74.5364 9.96923 73.4355 10.166C73.0924 10.2278 72.7456 10.2656 72.3912 10.253Z" fill="#333333"/>
<path d="M59.7813 7.55168C59.0372 7.57942 58.8518 7.40286 58.8884 6.66636C58.9224 5.97779 59.1772 5.3611 59.558 4.79485C60.9415 2.73669 63.9619 1.74292 66.2988 2.57653C66.7692 2.74426 66.7704 2.74552 66.4879 3.13142C66.131 3.61822 65.8965 4.15798 65.7842 4.74945C65.759 4.88313 65.7426 4.99411 65.5913 5.04834C64.6189 5.3901 63.7866 5.98914 62.9089 6.5062C61.8079 7.15568 60.7158 7.51762 59.7813 7.55168Z" fill="#333333"/>
<path d="M62.9038 10.1975C61.2038 10.166 60.0449 9.41307 59.6426 8.92123C59.5669 8.8279 59.3601 8.57694 59.4383 8.39029C59.5127 8.21374 59.8065 8.1759 59.9061 8.17338C61.7802 8.11158 63.4196 7.42427 64.9166 6.33592C65.1259 6.18458 65.411 5.85795 65.643 5.94623C65.8448 6.0219 65.7679 6.32204 65.9936 6.93874C66.1966 7.49489 66.3379 7.88206 66.6834 8.22004C66.8121 8.34615 67.0139 8.50758 66.9823 8.68918C66.9622 8.80647 66.8524 8.87961 66.807 8.90862C65.6506 9.65646 65.2155 9.78258 65.2155 9.78258C64.2911 10.0512 63.7311 10.2139 62.9038 10.1975Z" fill="#333333"/>
</svg>
