<svg width="310" height="45" viewBox="0 0 310 45" fill="none" xmlns="http://www.w3.org/2000/svg">
<path d="M283.979 9.42014C285.805 9.48422 287.636 9.48422 289.527 9.48422C291.422 9.48422 294.164 9.42014 295.207 9.42014C304.216 9.42014 309.374 14.9038 309.374 22.6716C309.374 30.0503 302.778 34.6185 295.99 34.6185C294.228 34.6185 290.635 34.4857 289.394 34.4857C288.479 34.4857 285.348 34.6185 283.974 34.6185V33.4421C286.716 33.4421 286.977 32.7235 286.977 30.3753V12.8806C286.977 10.7247 286.259 10.5965 283.974 10.5965V9.42014H283.979ZM294.75 10.9215C293.312 10.9215 292.53 10.9215 290.635 11.0543V29.7939C290.635 32.7326 292.072 33.1903 295.4 33.1903C299.968 33.1903 305.259 29.4049 305.259 22.4839C305.259 15.5584 300.824 10.9215 294.75 10.9215Z" fill="white"/>
<path d="M23.2528 33.4466C22.2732 33.9685 18.0941 35.1448 14.3727 35.1448C5.82221 35.1448 0.860352 29.4643 0.860352 22.3466C0.860352 13.9929 7.32358 9.29193 15.6132 9.29193C18.9409 9.29193 21.8155 10.0106 23.3169 10.926L23.5137 15.8238H22.1405C21.1609 11.3197 17.8332 10.7979 14.5009 10.7979C9.21403 10.7979 4.77399 14.652 4.77399 21.2434C4.77399 28.6221 9.93267 33.584 14.3727 33.584C16.46 33.584 21.8155 33.3231 22.4701 28.558H23.7746L23.2528 33.4466Z" fill="white"/>
<path d="M44.2126 35.2092C36.9026 35.2092 31.0253 29.2678 31.0253 21.9577C31.0253 14.6431 36.9026 8.77036 44.2126 8.77036C51.5913 8.77036 57.4641 14.6477 57.4641 21.9577C57.4641 29.2678 51.5868 35.2092 44.2126 35.2092ZM43.6222 10.3999C38.6603 10.464 35.1998 15.3617 35.1998 21.2391C35.1998 27.8991 39.6399 33.5796 44.8626 33.5796C49.7604 33.5796 53.2209 28.6819 53.2209 22.8091C53.2209 15.6913 48.584 10.3999 43.6222 10.3999Z" fill="white"/>
<path d="M119.904 35.0123C111.678 35.0123 108.346 28.1554 108.346 22.8044C108.346 14.2494 113.633 9.28751 119.707 9.28751C125.909 9.28751 129.631 14.3134 129.631 19.7971C129.631 21.6921 129.434 21.7562 128.454 21.7562H120.554C117.679 21.7562 114.809 21.7562 112.525 21.8203C112.589 25.8667 114.287 32.8563 121.927 32.8563C123.95 32.8563 126.431 32.3345 129.37 31.1581L129.827 32.3986C125.973 34.2295 122.646 35.0123 119.904 35.0123ZM120.686 19.9985C124.014 19.9985 125.781 19.9985 125.781 17.6503C125.781 14.6476 123.167 10.9262 119.446 10.9262C115.661 10.9262 112.525 14.7803 112.525 20.0031H120.686V19.9985Z" fill="white"/>
<path d="M149.345 35.0123C141.12 35.0123 137.788 28.1554 137.788 22.8044C137.788 14.2494 143.074 9.28751 149.149 9.28751C155.351 9.28751 159.072 14.3134 159.072 19.7971C159.072 21.6921 158.875 21.7562 157.896 21.7562H149.995C147.121 21.7562 144.251 21.7562 141.967 21.8203C142.031 25.8667 143.729 32.8563 151.369 32.8563C153.392 32.8563 155.873 32.3345 158.811 31.1581L159.269 32.3986C155.42 34.2295 152.087 35.0123 149.345 35.0123ZM150.128 19.9985C153.456 19.9985 155.223 19.9985 155.223 17.6503C155.223 14.6476 152.609 10.9262 148.888 10.9262C145.102 10.9262 141.967 14.7803 141.967 20.0031H150.128V19.9985Z" fill="white"/>
<path d="M208.951 34.6231C207.317 34.559 205.688 34.4904 204.118 34.4904C202.484 34.4904 200.918 34.5544 199.353 34.6231V33.4467C202.095 33.4467 202.355 32.5999 202.355 30.5081C202.355 26.9835 202.419 20.4516 202.419 17.7098C202.419 14.3134 202.287 11.9652 199.092 11.9652C196.217 11.9652 192.235 13.9884 190.344 15.6225V30.3112C190.344 32.9249 190.605 33.4467 193.283 33.4467V34.6231C191.718 34.559 190.148 34.4904 188.518 34.4904C186.884 34.4904 185.254 34.5544 183.62 34.6231V33.4467C186.426 33.4467 186.756 32.4031 186.756 30.2472V17.4534C186.756 14.1898 186.559 11.837 183.295 11.837C180.357 11.837 176.635 13.7961 174.745 15.4943V30.3158C174.745 32.8608 174.809 33.4513 177.487 33.4513V34.6277C176.571 34.6277 174.287 34.4949 172.658 34.4949C171.023 34.4949 169.394 34.559 167.824 34.6277V33.4513C170.438 33.4513 170.891 32.6686 170.891 30.3158V13.9289C170.891 11.5807 170.172 10.6011 167.494 10.6011V9.42475C168.41 9.42475 170.63 9.36067 171.934 9.36067C174.415 9.36067 174.74 9.8184 174.74 12.0384V13.4757C176.896 11.4525 180.618 9.03568 183.945 9.03568C187.603 9.03568 189.626 11.1229 190.212 13.6039C192.299 11.3839 196.281 9.09976 199.874 9.09976C204.9 9.09976 206.077 12.4962 206.077 16.6753V30.1876C206.077 32.9295 206.274 33.4513 208.951 33.4513V34.6231Z" fill="white"/>
<path d="M87.5739 5.33262C86.8598 5.33262 85.9489 4.61855 84.9098 3.89991C84.063 3.31401 82.5021 2.79677 80.749 2.79677C77.3664 2.79677 73.3337 4.94355 73.3337 13.5902V19.8978H81.4631V21.8477H73.5305V39.4706C73.5305 43.6314 74.8946 43.8282 79.6413 43.8282V45C77.1054 44.9359 74.5696 44.8718 72.0978 44.8718C69.562 44.8718 67.0902 44.9359 64.6184 45V43.8282C68.0011 43.8282 69.7542 43.5673 69.7542 40.2533V21.8523H65.2043V20.4883C66.312 20.4883 69.237 19.9024 69.6901 18.1492C69.7588 3.70766 77.5586 0 82.8912 0C86.4661 0 89.2629 1.88587 89.2629 3.44675C89.2629 4.35764 88.3566 5.33262 87.5739 5.33262Z" fill="white"/>
<path d="M107.307 5.33262C106.593 5.33262 105.682 4.61855 104.643 3.89991C103.796 3.31401 102.235 2.79677 100.482 2.79677C97.0991 2.79677 93.0665 4.94355 93.0665 13.5902V19.8978H101.196V21.8477H93.2633V39.4706C93.2633 43.6314 94.6274 43.8282 99.3741 43.8282V45C96.8382 44.9359 94.3024 44.8718 91.8306 44.8718C89.2947 44.8718 86.823 44.9359 84.3512 45V43.8282C87.7339 43.8282 89.487 43.5673 89.487 40.2533V21.8523H84.9371V20.4883C86.0448 20.4883 88.9698 19.9024 89.4229 18.1492C89.487 3.70766 97.2914 0 102.624 0C106.199 0 108.996 1.88587 108.996 3.44675C108.996 4.35764 108.085 5.33262 107.307 5.33262Z" fill="white"/>
<path d="M263.61 37.2138C256.506 36.9346 250.34 34.5315 245.671 28.9883C242.856 25.6468 241.401 21.7698 242.38 17.3801C243.593 11.9285 247.511 9.08136 252.588 7.61203C261.193 5.12195 271.78 8.72433 276.962 15.8696C278.766 18.3505 279.901 21.0832 279.864 24.2141C279.846 25.7246 279.351 26.3288 277.818 26.5211C275.154 26.8598 272.6 26.2281 270.078 25.4775C267.134 24.6078 264.489 23.0881 261.861 21.5455C258.254 19.4262 254.574 17.4945 250.39 16.7622C249.644 16.634 248.903 16.5013 248.166 16.7393C247.759 16.872 247.379 17.1329 247.365 17.6181C247.356 18.0301 247.653 18.291 248.001 18.4787C248.083 18.5244 248.161 18.5794 248.248 18.6068C253.009 20.0807 257.051 22.9416 261.335 25.3356C265.198 27.4961 269.364 28.6496 273.799 28.8281C274.733 28.8647 275.676 28.9517 276.596 29.0981C278.129 29.3407 278.427 30.064 277.47 31.2907C274.907 34.5681 271.396 36.1839 267.4 36.898C266.155 37.1222 264.896 37.2596 263.61 37.2138Z" fill="white"/>
<path d="M217.841 27.4092C215.14 27.5099 214.467 26.8691 214.6 24.1959C214.724 21.6966 215.648 19.4583 217.031 17.4031C222.052 9.93284 233.015 6.32588 241.497 9.35151C243.204 9.9603 243.208 9.96488 242.183 11.3655C240.888 13.1324 240.036 15.0915 239.629 17.2383C239.537 17.7235 239.478 18.1263 238.929 18.3231C235.4 19.5636 232.378 21.7378 229.193 23.6146C225.197 25.9719 221.233 27.2856 217.841 27.4092Z" fill="white"/>
<path d="M229.175 37.0126C223.004 36.8981 218.798 34.1654 217.338 32.3803C217.063 32.0415 216.312 31.1306 216.596 30.4532C216.866 29.8124 217.933 29.675 218.294 29.6659C225.096 29.4416 231.047 26.9469 236.48 22.9967C237.24 22.4474 238.274 21.2619 239.117 21.5823C239.849 21.8569 239.57 22.9463 240.389 25.1847C241.126 27.2033 241.639 28.6085 242.893 29.8353C243.36 30.293 244.092 30.8789 243.978 31.538C243.905 31.9637 243.506 32.2292 243.341 32.3345C239.144 35.0489 237.565 35.5066 237.565 35.5066C234.21 36.4816 232.177 37.0721 229.175 37.0126Z" fill="white"/>
</svg>
