<svg width="22" height="22" viewBox="0 0 22 22" fill="none" xmlns="http://www.w3.org/2000/svg">
<path d="M11 5.83673C9.9788 5.83673 8.98054 6.13955 8.13144 6.7069C7.28235 7.27425 6.62056 8.08064 6.22976 9.0241C5.83897 9.96757 5.73672 11.0057 5.93595 12.0073C6.13517 13.0089 6.62692 13.9289 7.34902 14.651C8.07112 15.3731 8.99112 15.8648 9.9927 16.0641C10.9943 16.2633 12.0324 16.161 12.9759 15.7702C13.9194 15.3794 14.7258 14.7177 15.2931 13.8686C15.8604 13.0195 16.1633 12.0212 16.1633 11C16.1633 9.63062 15.6193 8.31732 14.651 7.34902C13.6827 6.38072 12.3694 5.83673 11 5.83673ZM11 14.8163C10.2452 14.8163 9.50735 14.5925 8.87976 14.1732C8.25217 13.7538 7.76302 13.1578 7.47417 12.4604C7.18533 11.7631 7.10975 10.9958 7.257 10.2555C7.40426 9.51518 7.76773 8.83517 8.30145 8.30145C8.83517 7.76773 9.51518 7.40426 10.2555 7.257C10.9958 7.10975 11.7631 7.18533 12.4604 7.47417C13.1578 7.76302 13.7538 8.25217 14.1732 8.87976C14.5925 9.50735 14.8163 10.2452 14.8163 11C14.8134 12.0112 14.4103 12.9802 13.6953 13.6953C12.9802 14.4103 12.0112 14.8134 11 14.8163ZM15.9388 0H6.06122C4.45369 0 2.91199 0.638592 1.77529 1.77529C0.638592 2.91199 0 4.45369 0 6.06122V15.9388C0 17.5463 0.638592 19.088 1.77529 20.2247C2.91199 21.3614 4.45369 22 6.06122 22H15.9388C17.5463 22 19.088 21.3614 20.2247 20.2247C21.3614 19.088 22 17.5463 22 15.9388V6.06122C22 4.45369 21.3614 2.91199 20.2247 1.77529C19.088 0.638592 17.5463 0 15.9388 0ZM20.6531 15.9388C20.6531 17.1891 20.1564 18.3882 19.2723 19.2723C18.3882 20.1564 17.1891 20.6531 15.9388 20.6531H6.06122C4.81092 20.6531 3.61182 20.1564 2.72772 19.2723C1.84362 18.3882 1.34694 17.1891 1.34694 15.9388V6.06122C1.34694 4.81092 1.84362 3.61182 2.72772 2.72772C3.61182 1.84362 4.81092 1.34694 6.06122 1.34694H15.9388C17.1891 1.34694 18.3882 1.84362 19.2723 2.72772C20.1564 3.61182 20.6531 4.81092 20.6531 6.06122V15.9388ZM17.9592 5.16327C17.9592 5.38526 17.8934 5.60228 17.77 5.78686C17.6467 5.97145 17.4714 6.11532 17.2663 6.20027C17.0612 6.28523 16.8355 6.30746 16.6178 6.26415C16.4 6.22084 16.2 6.11393 16.043 5.95696C15.8861 5.79998 15.7792 5.59998 15.7359 5.38224C15.6925 5.16451 15.7148 4.93882 15.7997 4.73372C15.8847 4.52862 16.0285 4.35332 16.2131 4.22998C16.3977 4.10665 16.6147 4.04082 16.8367 4.04082C17.1344 4.04082 17.4199 4.15907 17.6304 4.36957C17.8409 4.58007 17.9592 4.86557 17.9592 5.16327Z" fill="#333333"/>
</svg>
