<svg width="22" height="22" viewBox="0 0 22 22" fill="none" xmlns="http://www.w3.org/2000/svg">
<path d="M15.8506 12.9268C15.5822 12.802 14.2727 12.1779 14.0366 12.0843C13.7897 12.0011 13.618 11.9595 13.4355 12.2091C13.253 12.4691 12.7485 13.0516 12.5983 13.218C12.448 13.3948 12.287 13.4156 12.0187 13.2804C11.7503 13.1556 10.8916 12.8748 9.88268 12.0011C9.08839 11.3147 8.56245 10.4722 8.40144 10.2122C8.25117 9.95221 8.37998 9.817 8.51951 9.68179C8.63758 9.56739 8.78785 9.38018 8.91666 9.23457C9.04546 9.08896 9.09913 8.97456 9.185 8.80815C9.27087 8.63134 9.22793 8.48573 9.16353 8.36093C9.09913 8.23612 8.56245 6.96725 8.34778 6.44722C8.1331 5.948 7.9077 6.0104 7.74669 6H7.23148C7.04901 6 6.76994 6.0624 6.52306 6.32242C6.28693 6.58243 5.59998 7.20646 5.59998 8.47533C5.59998 9.7442 6.55527 10.9715 6.68407 11.1379C6.81287 11.3147 8.56245 13.9148 11.2244 15.0277C11.8577 15.2981 12.3514 15.4541 12.7378 15.5685C13.3711 15.7661 13.9507 15.7349 14.4123 15.6725C14.9275 15.5997 15.9901 15.0485 16.2048 14.4452C16.4302 13.842 16.4302 13.3324 16.355 13.218C16.2799 13.1036 16.1189 13.0516 15.8506 12.9268Z" fill="#333333"/>
<rect x="0.65" y="0.65" width="20.3" height="20.3" rx="5.35" stroke="#333333" stroke-width="1.3"/>
</svg>
