<svg width="22" height="22" viewBox="0 0 22 22" fill="none" xmlns="http://www.w3.org/2000/svg">
<path d="M11 14.67L11.0005 14.67C11.9728 14.667 12.9044 14.2794 13.5919 13.5919C14.2794 12.9044 14.667 11.9728 14.67 11.0005V11C14.67 10.2741 14.4548 9.56459 14.0515 8.96106C13.6482 8.35753 13.0751 7.88714 12.4044 7.60936C11.7338 7.33159 10.9959 7.25891 10.284 7.40052C9.57211 7.54213 8.91818 7.89166 8.40492 8.40492C7.89166 8.91818 7.54213 9.57211 7.40052 10.284C7.25891 10.9959 7.33159 11.7338 7.60936 12.4044C7.88714 13.0751 8.35753 13.6482 8.96106 14.0515C9.56459 14.4548 10.2741 14.67 11 14.67ZM8.14993 6.73456C8.99355 6.17087 9.98538 5.87 11 5.87C12.3606 5.87 13.6654 6.41048 14.6275 7.37254C15.5895 8.3346 16.13 9.63944 16.13 11C16.13 12.0146 15.8291 13.0065 15.2654 13.8501C14.7017 14.6937 13.9006 15.3512 12.9632 15.7395C12.0258 16.1278 10.9943 16.2294 9.99919 16.0314C9.00407 15.8335 8.08999 15.3449 7.37254 14.6275C6.6551 13.91 6.16651 12.9959 5.96857 12.0008C5.77063 11.0057 5.87222 9.97422 6.2605 9.03683C6.64878 8.09945 7.3063 7.29825 8.14993 6.73456ZM6.16 0.15H15.84C17.434 0.15 18.9626 0.783195 20.0897 1.91029C21.2168 3.03738 21.85 4.56605 21.85 6.16V15.84C21.85 17.434 21.2168 18.9626 20.0897 20.0897C18.9626 21.2168 17.434 21.85 15.84 21.85H6.16C4.56605 21.85 3.03738 21.2168 1.91029 20.0897C0.783195 18.9626 0.15 17.434 0.15 15.84V6.16C0.15 4.56605 0.783195 3.03738 1.91029 1.91029C3.03738 0.783195 4.56605 0.15 6.16 0.15ZM20.0437 17.5812C20.2723 17.0292 20.39 16.4375 20.39 15.84V6.16C20.39 5.56249 20.2723 4.97082 20.0437 4.41879C19.815 3.86676 19.4798 3.36517 19.0573 2.94266C18.6348 2.52016 18.1332 2.18501 17.5812 1.95635C17.0292 1.72769 16.4375 1.61 15.84 1.61H6.16C4.95326 1.61 3.79595 2.08937 2.94266 2.94266C2.08937 3.79595 1.61 4.95326 1.61 6.16V15.84C1.61 16.4375 1.72769 17.0292 1.95635 17.5812C2.18501 18.1332 2.52016 18.6348 2.94266 19.0573C3.36517 19.4798 3.86676 19.815 4.41879 20.0437C4.97082 20.2723 5.56249 20.39 6.16 20.39H15.84C16.4375 20.39 17.0292 20.2723 17.5812 20.0437C18.1332 19.815 18.6348 19.4798 19.0573 19.0573C19.4798 18.6348 19.815 18.1332 20.0437 17.5812ZM17.89 5.28C17.89 5.5114 17.8214 5.73761 17.6928 5.93002C17.5643 6.12242 17.3815 6.27239 17.1677 6.36094C16.954 6.44949 16.7187 6.47266 16.4917 6.42752C16.2648 6.38237 16.0563 6.27094 15.8927 6.10732C15.7291 5.94369 15.6176 5.73521 15.5725 5.50826C15.5273 5.2813 15.5505 5.04605 15.6391 4.83226C15.7276 4.61847 15.8776 4.43574 16.07 4.30718C16.2624 4.17862 16.4886 4.11 16.72 4.11C17.0303 4.11 17.3279 4.23327 17.5473 4.45268C17.7667 4.6721 17.89 4.9697 17.89 5.28Z" fill="white" stroke="#3D514E" stroke-width="0.3"/>
</svg>
