<svg width="22" height="22" viewBox="0 0 22 22" fill="none" xmlns="http://www.w3.org/2000/svg">
<path d="M16.2506 12.9268C15.9822 12.802 14.6727 12.1779 14.4366 12.0843C14.1897 12.0011 14.018 11.9595 13.8355 12.2091C13.6531 12.4691 13.1486 13.0516 12.9983 13.218C12.848 13.3948 12.687 13.4156 12.4187 13.2804C12.1504 13.1556 11.2917 12.8748 10.2827 12.0011C9.48842 11.3147 8.96247 10.4722 8.80147 10.2122C8.6512 9.95221 8.78 9.817 8.91954 9.68179C9.03761 9.56739 9.18788 9.38018 9.31668 9.23457C9.44548 9.08896 9.49915 8.97456 9.58502 8.80815C9.67089 8.63134 9.62796 8.48573 9.56355 8.36093C9.49915 8.23612 8.96247 6.96725 8.7478 6.44722C8.53313 5.948 8.30772 6.0104 8.14672 6H7.63151C7.44903 6 7.16996 6.0624 6.92309 6.32242C6.68695 6.58243 6 7.20646 6 8.47533C6 9.7442 6.95529 10.9715 7.08409 11.1379C7.2129 11.3147 8.96247 13.9148 11.6244 15.0277C12.2577 15.2981 12.7514 15.4541 13.1378 15.5685C13.7711 15.7661 14.3507 15.7349 14.8123 15.6725C15.3275 15.5997 16.3901 15.0485 16.6048 14.4452C16.8302 13.842 16.8302 13.3324 16.7551 13.218C16.6799 13.1036 16.5189 13.0516 16.2506 12.9268Z" fill="white"/>
<rect x="0.900024" y="0.5" width="20.6" height="20.6" rx="5.5" stroke="white"/>
</svg>
